<svg width="19" height="22" viewBox="0 0 19 22" fill="none" xmlns="http://www.w3.org/2000/svg">
<path d="M2.4179 21.0767C2.07243 21.076 1.73308 20.9855 1.43322 20.8139C0.758012 20.4313 0.338257 19.6886 0.338257 18.8823V2.56471C0.338257 1.75614 0.758012 1.01566 1.43322 0.633046C1.74022 0.456612 2.08897 0.365881 2.44303 0.370335C2.79708 0.374789 3.14344 0.474265 3.4459 0.658367L17.3918 9.0062C17.6824 9.18844 17.922 9.44152 18.0881 9.74169C18.2542 10.0419 18.3413 10.3793 18.3413 10.7224C18.3413 11.0654 18.2542 11.4028 18.0881 11.703C17.922 12.0032 17.6824 12.2563 17.3918 12.4385L3.44365 20.7886C3.13412 20.9757 2.77959 21.0753 2.4179 21.0767V21.0767Z" fill="#E1E1E6"/>
</svg>
