<svg width="28" height="17" viewBox="0 0 28 17" fill="none" xmlns="http://www.w3.org/2000/svg">
<path d="M26.2392 7.23041L15.6119 0.872199C15.349 0.71223 15.048 0.625801 14.7403 0.62194C14.4325 0.61808 14.1294 0.696931 13.8626 0.850254C13.5731 1.01885 13.3333 1.26107 13.1677 1.55231C13.002 1.84354 12.9164 2.17343 12.9196 2.50845V6.95639L2.75091 0.870511C2.488 0.710542 2.18696 0.624113 1.87923 0.620252C1.57151 0.616392 1.26839 0.695243 1.00155 0.848567C0.712025 1.01717 0.472271 1.25938 0.30664 1.55062C0.14101 1.84186 0.0554025 2.17174 0.058513 2.50677V14.9419C0.0553028 15.277 0.140863 15.607 0.306498 15.8983C0.472134 16.1897 0.711942 16.432 1.00155 16.6006C1.26839 16.7539 1.57151 16.8328 1.87923 16.8289C2.18696 16.8251 2.488 16.7386 2.75091 16.5787L12.9196 10.49V14.9396C12.9159 15.2751 13.0013 15.6056 13.167 15.8974C13.3326 16.1891 13.5726 16.4318 13.8626 16.6006C14.1294 16.7539 14.4325 16.8328 14.7403 16.8289C15.048 16.8251 15.349 16.7386 15.6119 16.5787L26.2392 10.2205C26.4918 10.0622 26.7001 9.84235 26.8445 9.58153C26.9889 9.32072 27.0646 9.02749 27.0646 8.72938C27.0646 8.43126 26.9889 8.13804 26.8445 7.87722C26.7001 7.6164 26.4918 7.39655 26.2392 7.23829V7.23041Z" fill="#E1E1E6"/>
</svg>
